<?xml version="1.0" standalone="no"?>
<!DOCTYPE svg PUBLIC "-//W3C//DTD SVG 20010904//EN"
 "http://www.w3.org/TR/2001/REC-SVG-20010904/DTD/svg10.dtd">
<svg version="1.0" xmlns="http://www.w3.org/2000/svg"
 width="960.000000pt" height="960.000000pt" viewBox="0 0 960.000000 960.000000"
 preserveAspectRatio="xMidYMid meet">
<metadata>
Created by potrace 1.11, written by Peter Selinger 2001-2013
</metadata>
<g transform="translate(0.000000,960.000000) scale(0.100000,-0.100000)"
fill="#000000" stroke="none">
<path d="M5954 6652 c-29 -4 -30 -13 -33 -345 -1 -155 -4 -283 -6 -285 -1 -2
-433 -5 -960 -7 -526 -1 -961 -7 -965 -12 -9 -10 -51 -143 -155 -498 -119
-406 -136 -458 -145 -449 -11 13 -37 97 -141 449 -49 171 -102 348 -116 395
-14 47 -28 93 -30 103 -5 16 -29 17 -318 17 l-312 0 -41 -142 c-109 -374 -243
-822 -247 -826 -8 -9 -25 11 -25 28 0 11 -4 29 -10 42 -7 18 -155 522 -253
861 l-11 39 -444 -4 c-244 -1 -448 -6 -454 -9 -11 -7 40 -166 197 -614 42
-121 101 -290 130 -375 158 -461 386 -1111 404 -1153 l21 -48 317 2 c175 0
336 4 357 7 l39 7 157 425 c86 234 161 434 168 445 10 19 12 17 28 -20 9 -22
81 -217 160 -433 79 -216 149 -402 154 -413 10 -18 25 -19 366 -19 l354 0 10
23 c5 12 32 87 59 167 97 283 313 907 351 1015 21 61 66 191 100 290 81 237
81 239 91 224 4 -7 8 -260 9 -563 1 -467 3 -772 9 -1093 l1 -63 364 0 364 0 4
43 c3 23 6 346 7 717 1 371 3 676 5 677 7 7 255 9 273 2 20 -7 21 -15 23 -156
7 -570 10 -619 47 -736 92 -292 279 -467 568 -533 62 -14 119 -18 250 -17 192
1 283 12 395 49 74 25 78 28 82 58 6 57 3 714 -4 721 -3 4 -38 -1 -77 -10 -49
-12 -95 -16 -149 -13 -92 5 -134 26 -182 90 l-30 42 0 253 0 253 148 1 c161 1
243 5 278 13 l23 6 -4 366 c-2 201 -6 368 -9 371 -2 3 -100 7 -217 9 -117 2
-214 5 -215 7 -2 2 -5 139 -7 305 -3 167 -7 306 -10 309 -7 6 -706 11 -743 5z"/>
<path d="M7776 4784 c-227 -54 -386 -272 -370 -507 12 -174 115 -331 269 -406
196 -97 416 -58 574 100 181 183 183 476 3 671 -93 100 -197 148 -332 153 -50
2 -109 -3 -144 -11z"/>
</g>
</svg>
